<svg xmlns="http://www.w3.org/2000/svg" viewBox="0 0 32 32"><g transform="translate(-25 -1353.362)" fill="#01232b" class="color000000 svgShape"><path style="line-height:normal;text-indent:0;text-align:start;text-decoration-line:none;text-decoration-style:solid;text-decoration-color:#000;text-transform:none;block-progression:tb;isolation:auto;mix-blend-mode:normal" fill="#14af64" fill-rule="evenodd" d="M40.5 1356.3613l0 2.2559 1 0 0-2.2559-1 0zM40.5 1379.6602l0 2.2558 1 0 0-2.2558-1 0zM51.212891 1371.3789l-.259766.9668 2.160156.582.261719-.9648-2.162109-.584zM28.886719 1365.3496l-.261719.9649 2.162109.5839.259766-.9648-2.160156-.584zM45.849609 1378.4746l-.908203.418.941406 2.0449.908204-.418-.941407-2.0449zM36.117188 1357.3398l-.908204.418.941407 2.0469.908203-.4199-.941406-2.045zM48.9375 1375.9961l-.689453.7246 1.626953 1.5488.689453-.7246-1.626953-1.5488zM32.125 1360.0078l-.689453.7246 1.626953 1.5488.689453-.7246-1.626953-1.5488z" color="#000" font-family="sans-serif" font-weight="400" overflow="visible" class="colorf05542 svgShape"></path><path style="line-height:normal;text-indent:0;text-align:start;text-decoration-line:none;text-decoration-style:solid;text-decoration-color:#000;text-transform:none;block-progression:tb;isolation:auto;mix-blend-mode:normal" fill="#003543" d="m 36.015625,1366.5684 c -0.862991,0.023 -1.733845,0.2613 -2.533203,0.7265 l -3.816406,2.2207 a 0.5001752,0.5001752 0 0 0 0.501953,0.8653 l 3.816406,-2.2227 c 0.653942,-0.3806 1.359745,-0.571 2.058594,-0.5898 0.655323,-0.018 1.237599,0.3196 1.832031,0.5898 l -1.40625,0.8184 c -0.643948,-0.066 -1.31742,-0.049 -1.925781,0.3046 l -5.695313,3.3145 c -1.510494,0.879 -2.054346,2.8069 -1.195312,4.3066 0.859059,1.4998 2.79783,1.9925 4.308594,1.1133 l 5.695312,-3.3164 c 0.608998,-0.3543 0.959789,-0.9327 1.224609,-1.5273 l 1.445313,-0.8399 c -0.124025,1.3674 -0.720118,2.6802 -1.998047,3.4239 l -5.810547,3.3808 c -2.092488,1.2177 -4.725881,0.5084 -5.935547,-1.6035 -1.209692,-2.112 -0.500677,-4.7745 1.591797,-5.9922 a 0.50062269,0.50062269 0 0 0 -0.503906,-0.8652 c -2.558146,1.4887 -3.430406,4.7797 -1.955078,7.3554 1.475354,2.5758 4.746555,3.4594 7.304687,1.9708 l 5.8125,-3.3829 c 1.911691,-1.1124 2.885776,-3.2273 2.636719,-5.3027 a 0.50005,0.50005 0 0 0 -0.748047,-0.373 l -2.34375,1.3632 a 0.50005,0.50005 0 0 0 -0.224609,0.2813 c -0.161192,0.506 -0.498728,0.9564 -1,1.248 l -5.695313,3.3164 c -1.056116,0.6147 -2.348826,0.2763 -2.935547,-0.748 -0.586666,-1.0242 -0.22824,-2.3306 0.828125,-2.9453 l 5.697266,-3.3145 c 0.500603,-0.2913 1.052984,-0.3598 1.566406,-0.248 a 0.50005,0.50005 0 0 0 0.357422,-0.055 l 2.345703,-1.3652 a 0.50005,0.50005 0 0 0 0.05078,-0.8321 c -0.966307,-0.7314 -2.151227,-1.1088 -3.351563,-1.0761 z" color="#000" font-family="sans-serif" font-weight="400" overflow="visible" class="color2b4255 svgShape"></path><path style="line-height:normal;text-indent:0;text-align:start;text-decoration-line:none;text-decoration-style:solid;text-decoration-color:#000;text-transform:none;block-progression:tb;isolation:auto;mix-blend-mode:normal" fill="#003543" d="m 45.75,1364.3945 c -0.612754,-0.1498 -1.288772,-0.069 -1.880859,0.2754 l -8.083985,4.7051 c -1.184203,0.6891 -1.633073,2.1907 -0.964844,3.3574 0.668275,1.1667 2.192766,1.5271 3.376954,0.8379 l 8.082031,-4.7031 c 1.184165,-0.6892 1.635076,-2.1927 0.966797,-3.3594 -0.33412,-0.5833 -0.88334,-0.9634 -1.496094,-1.1133 z m -0.242188,0.959 c 0.360369,0.087 0.676674,0.3129 0.871094,0.6524 0.388881,0.6789 0.139733,1.5646 -0.601562,1.9961 l -8.083985,4.7031 c -0.741252,0.4314 -1.616974,0.2082 -2.005859,-0.4707 -0.388851,-0.6789 -0.139694,-1.5648 0.601562,-1.9961 l 8.082032,-4.7031 c 0.370643,-0.2157 0.77635,-0.2685 1.136718,-0.1817 z" color="#000" font-family="sans-serif" font-weight="400" overflow="visible" class="color2b4255 svgShape"></path><path style="line-height:normal;text-indent:0;text-align:start;text-decoration-line:none;text-decoration-style:solid;text-decoration-color:#000;text-transform:none;block-progression:tb;isolation:auto;mix-blend-mode:normal" fill="#003543" d="m 51.511719,1357.5508 c -0.862414,0.024 -1.732699,0.2599 -2.53125,0.7246 l -5.8125,3.3828 c -1.911672,1.1126 -2.885776,3.2274 -2.636719,5.3027 a 0.50005,0.50005 0 0 0 0.748047,0.3731 l 2.34375,-1.3652 a 0.50005,0.50005 0 0 0 0.226562,-0.2793 c 0.161556,-0.5063 0.497779,-0.957 0.998047,-1.2481 l 5.697266,-3.3144 c 1.056352,-0.6148 2.348942,-0.2801 2.935547,0.7441 0.586702,1.0242 0.226317,2.3305 -0.830078,2.9453 l -5.697266,3.3164 c -0.500315,0.2911 -1.051019,0.3595 -1.564453,0.2481 a 0.50005,0.50005 0 0 0 -0.357422,0.055 l -2.347656,1.3653 a 0.50005,0.50005 0 0 0 -0.05078,0.832 c 1.660968,1.2572 3.972888,1.4622 5.884766,0.3496 l 5.8125,-3.3808 c 2.558155,-1.4887 3.43042,-4.7779 1.955078,-7.3536 -1.013961,-1.7702 -2.874508,-2.7482 -4.771484,-2.6972 l -0.002,0 z m 0.02734,1 c 1.538416,-0.042 3.047252,0.7414 3.878907,2.1933 1.209678,2.1119 0.500668,4.7745 -1.591797,5.9922 l -5.810547,3.3828 c -1.280001,0.7449 -2.70604,0.6085 -3.941406,0.031 l 1.460937,-0.8496 c 0.642858,0.065 1.314303,0.049 1.921875,-0.3047 l 5.697266,-3.3145 c 1.510485,-0.879 2.052437,-2.8068 1.193359,-4.3066 -0.859095,-1.5 -2.796133,-1.9923 -4.30664,-1.1133 l -5.697266,3.3145 c -0.610408,0.3552 -0.960382,0.9357 -1.224609,1.5312 l -1.445313,0.8399 c 0.123482,-1.3681 0.719497,-2.6817 1.998047,-3.4258 l 5.810547,-3.3809 c 0.654219,-0.3807 1.357798,-0.571 2.05664,-0.5898 z" color="#000" font-family="sans-serif" font-weight="400" overflow="visible" class="color2b4255 svgShape"></path></g></svg>